<?xml version="1.0" encoding="UTF-8" standalone="no"?>
<!-- Created with Inkscape (http://www.inkscape.org/) -->

<svg
   version="1.1"
   id="svg1"
   width="1024"
   height="1536"
   viewBox="0 0 1024 1536"
   sodipodi:docname="CleanArenaGoal.svg"
   inkscape:version="1.4.2 (f4327f4, 2025-05-13)"
   xmlns:inkscape="http://www.inkscape.org/namespaces/inkscape"
   xmlns:sodipodi="http://sodipodi.sourceforge.net/DTD/sodipodi-0.dtd"
   xmlns="http://www.w3.org/2000/svg"
   xmlns:svg="http://www.w3.org/2000/svg">
  <defs
     id="defs1" />
  <sodipodi:namedview
     id="namedview1"
     pagecolor="#ffffff"
     bordercolor="#000000"
     borderopacity="0.25"
     inkscape:showpageshadow="2"
     inkscape:pageopacity="0.0"
     inkscape:pagecheckerboard="0"
     inkscape:deskcolor="#d1d1d1"
     inkscape:zoom="0.53059896"
     inkscape:cx="231.8135"
     inkscape:cy="771.76932"
     inkscape:window-width="1920"
     inkscape:window-height="1017"
     inkscape:window-x="1912"
     inkscape:window-y="-8"
     inkscape:window-maximized="1"
     inkscape:current-layer="g1"
     showgrid="true">
    <inkscape:grid
       id="grid1"
       units="px"
       originx="0"
       originy="0"
       spacingx="1"
       spacingy="1"
       empcolor="#0099e5"
       empopacity="0.30196078"
       color="#0099e5"
       opacity="0.14901961"
       empspacing="5"
       enabled="true"
       visible="true" />
  </sodipodi:namedview>
  <g
     inkscape:groupmode="layer"
     inkscape:label="Image"
     id="g1">
    <path
       id="arena"
       style="display:inline;fill:#000000"
       d="M 252.26367 260 C 112.3408 546.20374 119.89049 530.99939 112.3418 546.20312 C 111.24793 548.40629 112.62248 581.3426 111.38672 775.73633 C 112.62248 970.13006 111.24793 1003.0664 112.3418 1005.2695 C 119.89049 1020.4733 112.3408 1005.2689 252.26367 1291.4727 L 519.46094 1291.4727 L 591.53125 1291.4727 L 858.72852 1291.4727 C 998.65139 1005.2689 991.1017 1020.4733 998.65039 1005.2695 C 999.74426 1003.0664 998.36971 970.13006 999.60547 775.73633 C 998.36971 581.3426 999.74426 548.40629 998.65039 546.20312 C 991.1017 530.99939 998.65139 546.20374 858.72852 260 L 591.53125 260 L 519.46094 260 L 252.26367 260 z " />
    <path
       style="baseline-shift:baseline;display:inline;overflow:visible;vector-effect:none;enable-background:accumulate;stop-color:#000000;stop-opacity:1;opacity:1"
       d="m 250.29687,1289.5059 v 82.4609 H 861.9668 v -82.4609 z m 3.9336,3.9336 H 858.0332 v 74.5937 H 254.23047 Z"
       id="goal_bottom" />
    <path
       style="baseline-shift:baseline;display:inline;overflow:visible;vector-effect:none;enable-background:accumulate;stop-color:#000000"
       d="m 250,178.76955 v 82.4609 h 611.66993 v -82.4609 z m 3.9336,3.9336 h 603.80273 v 74.5937 H 253.9336 Z"
       id="goal_top" />
  </g>
</svg>
