<?xml version="1.0" encoding="UTF-8" standalone="no"?>
<!-- Created with Inkscape (http://www.inkscape.org/) -->

<svg
   version="1.1"
   id="svg1"
   width="256"
   height="256"
   viewBox="0 0 256 256"
   xmlns="http://www.w3.org/2000/svg"
   xmlns:svg="http://www.w3.org/2000/svg">
  <defs
     id="defs1" />
  <g
     id="g1">
    <path
       style="fill:#000000"
       d="m 118,239.33386 c -1.375,-0.21657 -3.50432,-0.61181 -4.73181,-0.8783 l -2.23181,-0.48453 -1.3794,-2.73552 -1.37939,-2.73551 -0.62451,-23.90238 c -0.71007,-27.17691 -0.23075,-25.41418 -6.43522,-23.66571 l -4.71786,1.32953 -28.080833,0.495 -28.080833,0.495 -2.273042,-1.2165 -2.273042,-1.21649 -2.896125,-6.38727 C 31.303256,174.91818 30,170.93193 30,169.57285 v -2.47107 l 3.25,-2.42842 c 1.7875,-1.33564 11.677651,-7.71079 21.978113,-14.16702 L 73.956227,138.76775 69.632236,133.63387 65.308246,128.5 52.154123,105.31628 39,82.13255 v -2.829623 -2.829624 l 3.623231,-5.486651 C 46.783077,64.687405 48.612152,63 51.28042,63 h 1.898162 l 15.160709,8.842383 c 8.33839,4.86331 18.18787,10.521258 21.887733,12.573216 l 6.727024,3.730835 1.022976,-0.632234 C 98.539661,87.166471 99,85.812819 99,84.506083 c 0,-4.013899 1.64402,-7.184638 16.73668,-32.279107 l 14.59861,-24.273025 2.44175,-0.612841 c 1.34297,-0.337062 5.6192,-0.346455 9.50275,-0.02087 l 7.06099,0.591968 1.57961,1.57679 1.57961,1.576791 0.5,25.385754 0.5,25.385753 0.6958,0.693823 0.6958,0.693822 4.73234,-1.612469 L 164.35628,80 h 28.27481 28.2748 l 2.44324,1.113213 2.44324,1.113213 3.10381,6.365747 c 3.4589,7.094 3.81095,9.953241 1.61206,13.092607 l -1.49176,2.12978 -20.75824,11.74256 c -11.41703,6.45841 -20.95517,11.90956 -21.19587,12.11368 -0.2407,0.20412 1.42,2.2742 3.69044,4.60017 L 194.88089,136.5 208.94044,159.83999 223,183.17997 v 2.96489 2.96488 l -4.021,5.92118 c -2.21155,3.25666 -4.93794,6.41192 -6.05865,7.01171 l -2.03765,1.09052 -3.19135,-0.66915 c -1.75524,-0.36803 -12.30433,-5.57299 -23.44241,-11.56657 C 173.11086,184.90384 163.59945,180 163.11248,180 h -0.88539 l -0.65427,4.36299 -0.65428,4.363 -5.10629,8.887 c -2.80847,4.88786 -5.88938,10.23701 -6.84647,11.88701 -0.9571,1.65 -4.99632,8.625 -8.97605,15.5 -3.97974,6.875 -7.94151,13.0625 -8.80394,13.75 l -1.56805,1.25 -4.55887,-0.13618 C 122.55149,239.78892 119.375,239.55044 118,239.33386 Z"
       id="path1" />
  </g>
</svg>
